<svg id="圖層_1" data-name="圖層 1" xmlns="http://www.w3.org/2000/svg" viewBox="0 0 448.76 173.62"><defs><style>.cls-1{fill:#26b7bc;}.cls-2{fill:#898989;}.cls-3{fill:#005787;}</style></defs><title>20211216-德記-CIS設計_FA</title><path class="cls-1" d="M90.78,85.47C87,91.87,59.1,122.54,59.1,122.54s-6.53,7.36-12.43,5.8c-4.1-1.08-3.88-6.21-3.88-6.21V97.9a23,23,0,0,0-5.13-14.45c-5.59-7-19.57-25.93-19.57-25.93s-3.65-3.89-3.47,3.31v79.32s-.62,9.94,17.61,9.94H74.68s9.32,1,17-9.94,19.47-25.89,19.47-25.89,7.87-11,7.87-18.85-6.44-14.94-10.77-19.88c-3-3.43-35.09-39.76-35.09-39.76s-4.76-7.45-12-7.45H26.27s-6.42-.21-2.28,6.21S50.09,68.7,50.09,68.7s4.4,6,11.65,6H83s7.55-.52,9.42,3.62C93.78,81.54,90.78,85.47,90.78,85.47Z"/><path class="cls-2" d="M231.64,118h.2a14.08,14.08,0,0,1,14.24,14.18v.2a14.08,14.08,0,0,1-5.51,11.17,14.4,14.4,0,0,1-8.77,3h-.2a14.35,14.35,0,0,1-11.19-5.35,17.06,17.06,0,0,1-2.28-4.18,15.14,15.14,0,0,1-.77-4.65v-.2a14.08,14.08,0,0,1,5.33-11,14.37,14.37,0,0,1,6.57-2.9A11.83,11.83,0,0,1,231.64,118Zm-8.58,14.22a8.81,8.81,0,0,0,2.91,6.53,8.29,8.29,0,0,0,5.45,2.22H232a8.48,8.48,0,0,0,4.67-1.56,8.9,8.9,0,0,0,3.33-4.6,10.14,10.14,0,0,0,.39-2.51,8.78,8.78,0,0,0-2.83-6.44,8.6,8.6,0,0,0-5.82-2.36,8.58,8.58,0,0,0-8.1,5.79A8.66,8.66,0,0,0,223.06,132.21Z"/><path class="cls-2" d="M250,132.25a14.65,14.65,0,0,1,1.4-6.22,14.09,14.09,0,0,1,7.95-7.15,17.1,17.1,0,0,1,6.41-.91h11.38v5.54H265.1q-6.17,0-8.6,5.31a8.4,8.4,0,0,0-.77,3.43,8.25,8.25,0,0,0,.77,3.42q2.44,5.31,8.6,5.31H274v5.53h-8.19a17.31,17.31,0,0,1-6.41-.91,14.05,14.05,0,0,1-7.95-7.13A14.65,14.65,0,0,1,250,132.25Zm13.78-2.76h13.36v17h-5.63V135h-7.73Z"/><path class="cls-2" d="M282.76,132.25a14.65,14.65,0,0,1,1.4-6.22,14.12,14.12,0,0,1,7.95-7.15,17.1,17.1,0,0,1,6.41-.91H309.9v5.54H297.83q-6.16,0-8.59,5.31a8.26,8.26,0,0,0-.78,3.43,8.11,8.11,0,0,0,.78,3.42q2.43,5.31,8.59,5.31h8.88v5.53h-8.19a17.31,17.31,0,0,1-6.41-.91,14.08,14.08,0,0,1-7.95-7.13A14.65,14.65,0,0,1,282.76,132.25Zm13.78-2.76H309.9v17h-5.62V135h-7.74Z"/><path class="cls-2" d="M332.53,118h10.92v5.54H331.72a9.36,9.36,0,0,0-5.47,1.33q-2.53,1.32-3.88,5.13a10,10,0,0,0-.3,2.22,9.2,9.2,0,0,0,2.42,6.06,8.89,8.89,0,0,0,3,2,10.35,10.35,0,0,0,4.18.69h11.81v5.55H332.27q-4.89,0-7.24-1.19a14.25,14.25,0,0,1-3.61-24,14.54,14.54,0,0,1,6-3A21.17,21.17,0,0,1,332.53,118Zm-11.7,11.52H340.3V135H320.83Z"/><path class="cls-2" d="M349.92,118h16.77a10,10,0,0,1,7.6,2.91,6.86,6.86,0,0,1,1.7,2.22,9.2,9.2,0,0,1,1.07,4.18v.81a9.54,9.54,0,0,1-5.88,8.26q3.61,3.84,3.61,10.16H369v-.44a8.74,8.74,0,0,0-3.78-7.43,9.62,9.62,0,0,0-5.64-1.52h-9.68v-5.51H367a4.11,4.11,0,0,0,4.16-3c.08-.41.13-.75.16-1a4.17,4.17,0,0,0-1.41-3,4.09,4.09,0,0,0-2.57-1s-.28-.08-.83-.08H349.92Z"/><path class="cls-2" d="M209.81,123.22a16.43,16.43,0,0,0-3.41-3,14.34,14.34,0,0,0-5.27-2,43,43,0,0,0-6.61-.25h-7.86v5.54h0V141h0v5.43h0v.12h10.41c3.32,0,5.77-.41,7.37-1.23a14.06,14.06,0,0,0,7.43-7.41,13.92,13.92,0,0,0,1.14-5.6A14.06,14.06,0,0,0,209.81,123.22Zm-4.26,14.24a8.82,8.82,0,0,1-4.56,3.13,11.37,11.37,0,0,1-3.31.37h-5.57V123.51h5.57a9.24,9.24,0,0,1,6,1.73,7.48,7.48,0,0,1,2.1,2.13,8.59,8.59,0,0,1-.24,10.09Z"/><rect class="cls-2" x="349.92" y="119.51" width="5.62" height="27.04"/><rect class="cls-3" x="223.32" y="43" width="21.69" height="2.35" rx="0.74"/><rect class="cls-3" x="223.32" y="59.2" width="21.69" height="2.35" rx="0.74"/><rect class="cls-3" x="223.32" y="67.38" width="21.69" height="2.35" rx="0.74"/><rect class="cls-3" x="220.92" y="51.88" width="26.48" height="2.35" rx="0.81"/><rect class="cls-3" x="250.38" y="41.87" width="23.58" height="2.35" rx="0.74"/><rect class="cls-3" x="253.06" y="64.28" width="20.91" height="2.35" rx="0.7"/><rect class="cls-3" x="270.49" y="41.87" width="6.3" height="24.76" rx="1.87"/><rect class="cls-3" x="250.95" y="64.28" width="6.3" height="34.2" rx="2.18"/><path class="cls-3" d="M243.56,76.3h-18.8a1.6,1.6,0,0,0-1.59,1.6V96.7a1.6,1.6,0,0,0,1.59,1.6h18.8a1.6,1.6,0,0,0,1.6-1.6V77.9A1.6,1.6,0,0,0,243.56,76.3ZM238.86,95a1.1,1.1,0,0,1-1.1,1.1h-7.2a1.1,1.1,0,0,1-1.1-1.1V79.62a1.11,1.11,0,0,1,1.1-1.1h7.2a1.11,1.11,0,0,1,1.1,1.1Z"/><path class="cls-3" d="M278.45,86.73c.11-1-.92-1-.92-1s-3.52-.21-4.58-.32c-.82-.08-1,.88-1,.88l-1.28,8.85a1.1,1.1,0,0,1-1.1,1.1H258.34a1.11,1.11,0,0,1-1.1-1.1V82.32a1.59,1.59,0,0,0-1.79-1.67c-2.09,0-1.83.82-1.83.82l.59-.16L252.54,83A1.6,1.6,0,0,0,251,84.6V96.88a1.6,1.6,0,0,0,1.59,1.6h22.81a1.6,1.6,0,0,0,1.6-1.6S278.34,87.72,278.45,86.73Z"/><rect class="cls-3" x="164.69" y="46.38" width="39.65" height="2.35" rx="0.96"/><rect class="cls-3" x="164.69" y="74.19" width="39.65" height="2.35" rx="0.96"/><rect class="cls-3" x="181.36" y="38.86" width="6.3" height="15.32" rx="1.53"/><path class="cls-3" d="M156.75,96.63a2.09,2.09,0,0,1-2.09,2.08h-2.13a2.08,2.08,0,0,1-2.08-2.08V69.56a3.62,3.62,0,0,1,1.87-3l2.55-1.23a1.21,1.21,0,0,1,1.88,1.17Z"/><path class="cls-3" d="M202.13,53.05H166.89a1.6,1.6,0,0,0-1.59,1.6v13.6a1.6,1.6,0,0,0,1.59,1.6h35.24a1.6,1.6,0,0,0,1.6-1.6V54.65A1.6,1.6,0,0,0,202.13,53.05Zm-4.7,13.48a1.11,1.11,0,0,1-1.1,1.1H172.69a1.11,1.11,0,0,1-1.1-1.1V56.37a1.1,1.1,0,0,1,1.1-1.1h23.64a1.1,1.1,0,0,1,1.1,1.1Z"/><path class="cls-3" d="M199.66,93a.88.88,0,0,0-.92-1s-3.52-.21-4.58-.32c-.82-.08-1,.88-1,.88l-.39,2.78a1.1,1.1,0,0,1-1.1,1.1h-12.9a1.1,1.1,0,0,1-1.1-1.1v-14a1.59,1.59,0,0,0-1.79-1.67c-2.09,0-1.83.83-1.83.83l.59-.16L173,82.08a1.6,1.6,0,0,0-1.59,1.6V97.09a1.6,1.6,0,0,0,1.59,1.6h24.5a1.6,1.6,0,0,0,1.6-1.6S199.55,94,199.66,93Z"/><rect class="cls-3" x="175.91" y="54.08" width="6.3" height="14.64" rx="1.34"/><rect class="cls-3" x="186.81" y="54.08" width="6.3" height="14.64" rx="1.34"/><path class="cls-3" d="M147.29,53.24C154.39,50.78,160,44.17,161,43s.16-1.81.16-1.81L157.54,39a1.52,1.52,0,0,0-2,.6c-1,1.25-2.94,6.86-9.19,12.51,0,0-.44.47-.08.84A1,1,0,0,0,147.29,53.24Z"/><path class="cls-3" d="M182.09,80.91c6.07,2.13,7.87,4.76,8.69,5.76s.13,1.56.13,1.56l-3.12,1.84a1.3,1.3,0,0,1-1.72-.52c-.82-1.08-.29-2.52-4.81-7.68,0,0-.37-.41-.07-.73A.84.84,0,0,1,182.09,80.91Z"/><path class="cls-3" d="M197,79.51c7.14,2.52,9.26,5.6,10.23,6.79s.15,1.83.15,1.83l-3.67,2.17a1.53,1.53,0,0,1-2-.62c-1-1.26-.34-3-5.66-9,0,0-.44-.48-.08-.85A1,1,0,0,1,197,79.51Z"/><path class="cls-3" d="M174.73,79.87c-6.56,2.27-11.79,8.39-12.68,9.47S161.9,91,161.9,91l3.36,2a1.41,1.41,0,0,0,1.86-.56c.9-1.16,2.73-6.35,8.51-11.57,0,0,.4-.44.07-.78A.91.91,0,0,0,174.73,79.87Z"/><path class="cls-3" d="M145.35,74.07c8.27-2.86,16-13,17.15-14.37s.19-2.12.19-2.12l-4.23-2.53a1.76,1.76,0,0,0-2.35.7c-1.13,1.46-4.6,10.43-11.89,17,0,0-.5.55-.09,1A1.15,1.15,0,0,0,145.35,74.07Z"/><path class="cls-3" d="M341.19,97a1.6,1.6,0,0,0,1.59,1.6h8.15a1.6,1.6,0,0,0,1.6-1.6s.51-3.09.61-4.07a.87.87,0,0,0-.91-1s-3.53-.21-4.58-.32c-.83-.08-1,.88-1,.88l-.38,2.78a1.11,1.11,0,0,1-1.11,1.1h0a1.1,1.1,0,0,1-1.1-1.1"/><path class="cls-3" d="M311.41,73.38c5.65.73,14.27-2.26,15.32-2.73s.72-1.18.72-1.18l-1.72-2.7a1.16,1.16,0,0,0-1.58-.27c-1.08.52-6.86,4.07-13,5.78,0,0-.46.18-.35.55A.76.76,0,0,0,311.41,73.38Z"/><path class="cls-3" d="M315.74,39.12c6.76,2.39,9.33,4.75,10.25,5.87s.15,1.73.15,1.73l-4,2.63a1.46,1.46,0,0,1-1.93-.59c-.91-1.2-.32-2.8-5.36-8.56,0,0-.42-.46-.07-.81A1,1,0,0,1,315.74,39.12Z"/><path class="cls-3" d="M341,68.29c6,.28,8.38,2.16,9.4,2.85s.54,1.37.54,1.37L348.67,75a1.23,1.23,0,0,1-1.7,0c-1-.74-.94-2.19-6.43-5.62,0,0-.44-.27-.25-.64A.81.81,0,0,1,341,68.29Z"/><path class="cls-3" d="M336.38,48.79c2.38-6.76,5.31-8.77,6.43-9.69s1.73-.14,1.73-.14l2.63,3.48a1.45,1.45,0,0,1-.59,1.92c-1.2.92-3.37.32-9.13,5.36,0,0-.46.42-.81.08A1,1,0,0,1,336.38,48.79Z"/><rect class="cls-3" x="311.57" y="47.6" width="39.65" height="2.35" rx="0.96"/><rect class="cls-3" x="309.17" y="62.59" width="44.44" height="2.35" rx="1.02"/><rect class="cls-3" x="309.17" y="76.55" width="44.44" height="2.35" rx="1.02"/><rect class="cls-3" x="311.05" y="96.18" width="10.05" height="2.35" rx="0.48"/><rect class="cls-3" x="314.43" y="55.4" width="33.92" height="2.35" rx="0.89"/><rect class="cls-3" x="328.25" y="47.79" width="6.3" height="16.3" rx="1.5"/><path class="cls-3" d="M324.86,96.59a2,2,0,0,1-1.93,1.94H320.5a2,2,0,0,1-1.93-1.94V73.4a2.72,2.72,0,0,1,1.86-2.46l2.57-.73a1.39,1.39,0,0,1,1.86,1.41Z"/><path class="cls-3" d="M305.63,96.63a2.08,2.08,0,0,1-2.08,2.08h-2.14a2.08,2.08,0,0,1-2.08-2.08V53.85a3.64,3.64,0,0,1,1.88-3l2.55-1.23a1.2,1.2,0,0,1,1.87,1.18Z"/><path class="cls-3" d="M293.42,63.24c7.44-4,15-18.93,15.83-20.44s-.13-2.13-.13-2.13l-4.39-1.93s-1.27-.57-2.13,1-4.49,14.77-10.44,22.32c0,0-.4.63.06,1A1.07,1.07,0,0,0,293.42,63.24Z"/><path class="cls-3" d="M329.73,83.35c-4,4.94-16.3,9-17.5,9.42s-1.48-.39-1.48-.39l-1.62-2.88s-.61-.81.65-1.22,13.09-2.64,19.32-6c0,0,.5-.22.7.17A.84.84,0,0,1,329.73,83.35Z"/><path class="cls-3" d="M331.18,93.7c6.26-.45,17.31-8.53,18.35-9.26s.52-1.43.52-1.43l-2-2.57a1,1,0,0,0-1.43-.17c-1.08.76-9.74,9.11-16,12.31,0,0-.46.29-.25.66A.84.84,0,0,0,331.18,93.7Z"/><path class="cls-3" d="M347.72,98.62c-2,0-3.1-2.26-3.1-2.26-6.77-11-6.49-29.07-6.49-29.07h-6.41s-.28,18.08,6.48,29.07c0,0,1.13,2.26,3.1,2.26"/><path class="cls-3" d="M390.1,41H373a1.6,1.6,0,0,0-1.59,1.6V57.1A1.6,1.6,0,0,0,373,58.7H390.1a1.6,1.6,0,0,0,1.6-1.6V42.61A1.6,1.6,0,0,0,390.1,41Zm-4.7,14.37a1.1,1.1,0,0,1-1.1,1.1h-5.54a1.11,1.11,0,0,1-1.1-1.1V44.33a1.11,1.11,0,0,1,1.1-1.1h5.54a1.1,1.1,0,0,1,1.1,1.1Z"/><path class="cls-3" d="M417.72,41H400.59a1.6,1.6,0,0,0-1.6,1.6V57.1a1.6,1.6,0,0,0,1.6,1.6h17.13a1.6,1.6,0,0,0,1.6-1.6V42.61A1.6,1.6,0,0,0,417.72,41ZM413,55.38a1.11,1.11,0,0,1-1.11,1.1h-5.53a1.1,1.1,0,0,1-1.1-1.1V44.33a1.1,1.1,0,0,1,1.1-1.1h5.53a1.11,1.11,0,0,1,1.11,1.1Z"/><path class="cls-3" d="M390.66,80.62H373a1.59,1.59,0,0,0-1.59,1.59V96.7A1.6,1.6,0,0,0,373,98.3h17.7a1.6,1.6,0,0,0,1.6-1.6V82.21A1.6,1.6,0,0,0,390.66,80.62ZM386,95a1.11,1.11,0,0,1-1.11,1.1h-6.1a1.1,1.1,0,0,1-1.1-1.1v-11a1.11,1.11,0,0,1,1.1-1.11h6.1A1.11,1.11,0,0,1,386,83.94Z"/><path class="cls-3" d="M417.72,80.62H400a1.59,1.59,0,0,0-1.59,1.59V96.7A1.6,1.6,0,0,0,400,98.3h17.7a1.6,1.6,0,0,0,1.6-1.6V82.21A1.6,1.6,0,0,0,417.72,80.62ZM413,95a1.11,1.11,0,0,1-1.11,1.1h-6.1a1.1,1.1,0,0,1-1.1-1.1v-11a1.11,1.11,0,0,1,1.1-1.11h6.1A1.11,1.11,0,0,1,413,83.94Z"/><path class="cls-3" d="M408.28,58.49c5.66,1.32,7.54,3.5,8.38,4.33s.27,1.38.27,1.38l-2.62,2a1.18,1.18,0,0,1-1.6-.3c-.85-.89-.51-2.24-5.08-6.43,0,0-.38-.34-.13-.65A.75.75,0,0,1,408.28,58.49Z"/><rect class="cls-3" x="366.47" y="65.15" width="57.27" height="2.35" rx="1.15"/><path class="cls-3" d="M367.87,84.15C376.05,80.86,389.23,72,396.44,61c1-1.49.09-2.14.09-2.14l-4.38-2.34a1.78,1.78,0,0,0-2.33.82,67.49,67.49,0,0,1-23.15,25.55s-.48.58,0,1A1.17,1.17,0,0,0,367.87,84.15Z"/><path class="cls-3" d="M422.76,77.2a102.83,102.83,0,0,1-20.35-10h-3.69c7.18,6.91,13.56,12.63,21.24,16.48,1.5.75,2-.15,2-.15l1.82-4.2A1.69,1.69,0,0,0,422.76,77.2Z"/></svg>